Coordinates
version=1
nRows=12
nColumns=48
inDegrees=yes

Units are S.I. units (second, meters, Newtons, ...)
Angles are in degrees.

endheader
time	pelvis_tilt	pelvis_list	pelvis_rotation	pelvis_tx	pelvis_ty	pelvis_tz	hip_flexion_r	hip_adduction_r	hip_rotation_r	knee_angle_r	knee_adduction_r	knee_rotation_r	knee_anterior_posterior_r	knee_inferior_superior_r	knee_medial_lateral_r	ankle_angle_r	subtalar_angle_r	mtp_angle_r	hip_flexion_l	hip_adduction_l	hip_rotation_l	knee_angle_l	knee_adduction_l	knee_rotation_l	knee_anterior_posterior_l	knee_inferior_superior_l	knee_medial_lateral_l	ankle_angle_l	subtalar_angle_l	mtp_angle_l	lumbar_extension	lumbar_bending	lumbar_rotation	arm_flex_r	arm_add_r	arm_rot_r	elbow_flex_r	pro_sup_r	wrist_flex_r	wrist_dev_r	arm_flex_l	arm_add_l	arm_rot_l	elbow_flex_l	pro_sup_l	wrist_flex_l	wrist_dev_l
      0.89000000	     -3.25939378	      2.09849527	      1.65840505	     -1.12339646	      0.99490032	      0.20396451	     13.90658444	     -0.64714426	     -6.11309310	    -25.60977075	      0.98440452	      4.11446608	      0.01159876	     -0.40000000	      0.00000000	     -0.09363887	      0.00000000	      0.00000000	     41.40271452	     -3.30837561	     -3.88194910	    -93.16046061	      0.98440452	      4.11446608	      0.00000000	     -0.40000000	      0.00000000	    -11.48960284	      0.00000000	      0.00000000	    -25.76690354	      1.91525213	      0.77217777	     -5.28707624	    -24.96220990	     17.69586164	     51.09238954	     80.87855133	      0.00000000	      0.00000000	     -4.05858856	    -15.12646161	     12.68525397	     46.64681708	     84.49441617	      0.00000000	      0.00000000
      0.90000000	     -3.15840003	      2.14480754	      1.73566310	     -1.12245126	      0.99406689	      0.20395516	     13.96488183	     -0.67412483	     -5.89582629	    -26.03405598	      0.98440452	      4.11446608	      0.01176866	     -0.40000000	      0.00000000	     -0.09658133	      0.00000000	      0.00000000	     41.44806838	     -3.26784131	     -3.98126600	    -94.23260990	      0.98440452	      4.11446608	      0.00000000	     -0.40000000	      0.00000000	    -11.55571129	      0.00000000	      0.00000000	    -26.11541989	      1.99553223	      0.70050788	     -5.23041119	    -25.02065027	     17.63795612	     51.03436674	     80.85883679	      0.00000000	      0.00000000	     -4.06157404	    -15.06145136	     12.69068048	     46.54755222	     84.51495645	      0.00000000	      0.00000000
      0.91000000	     -3.49471690	      2.35655053	      1.33860186	     -1.12186320	      0.99185698	      0.20452676	     15.00985253	     -0.81358612	     -5.25750603	    -27.35492313	      0.98440452	      4.11446608	      0.01185039	     -0.40000000	      0.00000000	      0.70608774	      0.00000000	      0.00000000	     41.88423833	     -3.37120942	     -4.54912789	    -95.41462103	      0.98440452	      4.11446608	      0.00000000	     -0.40000000	      0.00000000	    -11.15621549	      0.00000000	      0.00000000	    -25.98299131	      1.65860358	      1.27988035	     -5.45118160	    -25.12575387	     17.50150911	     51.12539353	     80.65821181	      0.00000000	      0.00000000	     -3.97959546	    -15.04199011	     12.87315534	     46.52939391	     84.79514210	      0.00000000	      0.00000000
      0.92000000	     -3.38252921	      2.39334339	      1.42827572	     -1.12056888	      0.99042410	      0.20450223	     15.15703868	     -0.80206089	     -4.99154786	    -28.00999270	      0.98440452	      4.11446608	      0.01210338	     -0.40000000	      0.00000000	      0.72879686	      0.00000000	      0.00000000	     41.87804556	     -3.31186728	     -4.59503811	    -96.42483205	      0.98440452	      4.11446608	      0.00000000	     -0.40000000	      0.00000000	    -11.21043728	      0.00000000	      0.00000000	    -26.32726866	      1.74877574	      1.28941161	     -5.39735958	    -25.12782352	     17.48581744	     50.95314758	     80.63207216	      0.00000000	      0.00000000	     -3.96817620	    -15.00233472	     12.93740383	     46.46422552	     84.80195143	      0.00000000	      0.00000000
      0.93000000	     -3.32729820	      2.41333392	      1.38282162	     -1.11969702	      0.98870429	      0.20467885	     15.55646182	     -0.78788770	     -4.76804705	    -28.96429558	      0.98440452	      4.11446608	      0.01233126	     -0.40000000	      0.00000000	      0.94950648	      0.00000000	      0.00000000	     41.90650801	     -3.32642702	     -4.71850914	    -97.41474304	      0.98440452	      4.11446608	      0.00000000	     -0.40000000	      0.00000000	    -11.23322834	      0.00000000	      0.00000000	    -26.68662826	      1.82870207	      1.34771685	     -5.21595216	    -25.11962270	     17.47460485	     50.79581837	     80.58217494	      0.00000000	      0.00000000	     -3.97121417	    -15.01651914	     13.00274368	     46.49130519	     84.81402034	      0.00000000	      0.00000000
      0.94000000	     -4.03423892	      2.78697160	      0.83015857	     -1.11957035	      0.98519747	      0.20524144	     17.15654008	     -1.03537776	     -3.96777928	    -30.48007423	      0.98440452	      4.11446608	      0.01249027	     -0.40000000	      0.00000000	      2.22374256	      0.00000000	      0.00000000	     42.79570362	     -3.35501718	     -5.53495727	    -98.47809870	      0.98440452	      4.11446608	      0.00000000	     -0.40000000	      0.00000000	    -11.14145068	      0.00000000	      0.00000000	    -26.25989556	      1.35140570	      1.63793918	     -4.91900571	    -25.17955639	     17.85533609	     50.55319292	     80.29121388	      0.00000000	      0.00000000	     -4.16080304	    -15.06615584	     13.01313302	     46.74991945	     84.77249412	      0.00000000	      0.00000000
      0.95000000	     -3.95438649	      2.78688078	      0.80005885	     -1.11847379	      0.98316959	      0.20518645	     17.46471088	     -1.00074595	     -3.76197278	    -31.34146318	      0.98440452	      4.11446608	      0.01279097	     -0.40000000	      0.00000000	      2.28835656	      0.00000000	      0.00000000	     42.77025127	     -3.33951087	     -5.63258396	    -99.37341160	      0.98440452	      4.11446608	      0.00000000	     -0.40000000	      0.00000000	    -11.17694622	      0.00000000	      0.00000000	    -26.68163598	      1.54941618	      1.58599904	     -4.65743360	    -25.23070150	     17.86929893	     50.44991526	     80.26860463	      0.00000000	      0.00000000	     -4.18880676	    -15.00631970	     13.03482687	     46.71398758	     84.74622213	      0.00000000	      0.00000000
      0.96000000	     -4.50487619	      3.07520196	      0.34960802	     -1.11814582	      0.97953276	      0.20559764	     18.85993265	     -1.16194435	     -3.12707060	    -32.81797294	      0.98440452	      4.11446608	      0.01293335	     -0.40000000	      0.00000000	      3.26479096	      0.00000000	      0.00000000	     43.46730876	     -3.37665904	     -6.28815471	   -100.34807197	      0.98440452	      4.11446608	      0.00000000	     -0.40000000	      0.00000000	    -11.02883562	      0.00000000	      0.00000000	    -26.47764265	      1.21389939	      1.71181562	     -4.06483057	    -25.40189414	     18.72444672	     50.04215625	     80.14623977	      0.00000000	      0.00000000	     -4.38622527	    -15.07970475	     12.98061119	     47.00572091	     84.62876481	      0.00000000	      0.00000000
      0.97000000	     -4.41640358	      3.07301530	      0.30408678	     -1.11714231	      0.97709709	      0.20555874	     19.24502052	     -1.15059331	     -3.04197151	    -33.82558765	      0.98440452	      4.11446608	      0.01325574	     -0.40000000	      0.00000000	      3.36770769	      0.00000000	      0.00000000	     43.44566401	     -3.35111785	     -6.36433946	   -101.18112835	      0.98440452	      4.11446608	      0.00000000	     -0.40000000	      0.00000000	    -11.08118348	      0.00000000	      0.00000000	    -26.92565536	      1.34967076	      1.88417237	     -3.79800281	    -25.39423297	     18.77178264	     49.78529101	     80.10065556	      0.00000000	      0.00000000	     -4.23797074	    -15.00671131	     13.08325584	     46.95139740	     84.64933005	      0.00000000	      0.00000000
      0.98000000	     -4.87514224	      3.35017223	     -0.05798753	     -1.11667418	      0.97328952	      0.20593428	     20.50035513	     -1.30851251	     -2.54229553	    -35.25355682	      0.98440452	      4.11446608	      0.01342046	     -0.40000000	      0.00000000	      4.26624638	      0.00000000	      0.00000000	     44.01773510	     -3.33800707	     -6.94467762	   -102.05140259	      0.98440452	      4.11446608	      0.00000000	     -0.40000000	      0.00000000	    -10.94059044	      0.00000000	      0.00000000	    -26.80962619	      1.03917489	      2.27690204	     -3.35572568	    -25.45091081	     19.32425127	     49.19880321	     79.95956445	      0.00000000	      0.00000000	     -4.05981190	    -15.16037667	     13.66418523	     46.95660998	     84.77034924	      0.00000000	      0.00000000
      0.99000000	     -5.18635203	      3.48950170	     -0.27575392	     -1.11632686	      0.96954702	      0.20583931	     21.56850497	     -1.36431239	     -2.17230310	    -36.60455933	      0.98440452	      4.11446608	      0.01365632	     -0.40000000	      0.00000000	      4.80007938	      0.00000000	      0.00000000	     44.47678394	     -3.30246121	     -7.27955588	   -102.89067883	      0.98440452	      4.11446608	      0.00000000	     -0.40000000	      0.00000000	    -10.86347203	      0.00000000	      0.00000000	    -26.88227967	      0.98608950	      2.44848272	     -2.85545302	    -25.56032399	     19.78430112	     48.84888242	     79.85096551	      0.00000000	      0.00000000	     -3.94929419	    -15.15244237	     13.86786712	     47.01698337	     84.72138157	      0.00000000	      0.00000000
      1.00000000	     -5.14720107	      3.47675299	     -0.30126992	     -1.11542303	      0.96639043	      0.20574514	     22.05424733	     -1.30127775	     -2.02164176	    -37.66707306	      0.98440452	      4.11446608	      0.01389447	     -0.40000000	      0.00000000	      4.97463683	      0.00000000	      0.00000000	     44.49787700	     -3.27148851	     -7.34251785	   -103.60377594	      0.98440452	      4.11446608	      0.00000000	     -0.40000000	      0.00000000	    -10.82106651	      0.00000000	      0.00000000	    -27.33344014	      1.17092791	      2.54329581	     -2.45498080	    -25.51861234	     19.86694054	     48.60307978	     79.79199229	      0.00000000	      0.00000000	     -3.76372262	    -15.07597510	     13.99798617	     46.93562236	     84.72669543	      0.00000000	      0.00000000
